<svg xmlns="http://www.w3.org/2000/svg" xml:space="preserve" width="513.86273" height="700" viewBox="0 0 513.86273 700.00002"><path d="M230.422-144.781a60.221 60.221 0 0 1-60.221 60.221 60.221 60.221 0 0 1-60.222-60.221 60.221 60.221 0 0 1 60.222-60.222 60.221 60.221 0 0 1 60.221 60.222z" style="fill:#fff;fill-rule:evenodd;stroke-width:1.49507;stroke-linejoin:round" transform="translate(-253.08 689.2) scale(2.99652)"/><path d="M0 0c-9.559 6.496-21.797 3.846-28.218-5.922-5.367-8.159-13.466-9.172-16.603-9.172-10.221 0-17.217 7.19-19.29 14.631h-.004a9.182 9.182 0 0 0-.056.207c-.021.082-.046.165-.066.254-.816 3.102-1.018 4.587-1.018 7.886 0 17.794 18.257 37.603 44.549 37.603 26.927 0 42.333-20.497 46.301-31.888-.071.2-.133.399-.203.605-7.638 22.279-28.767 38.3-53.64 38.3-31.308 0-56.696-25.381-56.696-56.693 0-27.989 20.189-51.948 48.189-51.948 22.332 0 37.341 12.524 44.228 29.779C11.252-16.92 8.574-5.828 0 0" style="fill:#003863;fill-opacity:1;fill-rule:nonzero;stroke:none" transform="matrix(3.00287 0 0 -3.00287 341.766 242.783)"/><path d="M0 0c-3.311 11.111-18.832 32.993-46.653 32.993-26.292 0-44.549-19.809-44.549-37.603 0-3.299.202-4.785 1.017-7.886a16.578 16.578 0 0 0-.521 4.044c0 18.529 18.553 31.37 37.626 31.37 25.818 0 46.747-20.932 46.747-46.744 0-20.24-11.644-37.753-28.568-46.17l.005-.014c21.814 7.9 37.39 28.791 37.39 53.326C2.494-10.877 1.714-5.759 0 0" style="fill:#e4032e;fill-opacity:1;fill-rule:nonzero;stroke:none" transform="matrix(3.00287 0 0 -3.00287 419.682 205.264)"/><path d="M0 0h4.59v-19.392H0v4.465h-5.375v3.763H0v3.474h-5.375v3.761H0Zm-2.895-29.025c0 1.377-.489 2.557-1.465 3.533-.98.979-2.159 1.47-3.536 1.47-1.406 0-2.591-.491-3.555-1.47-.967-.976-1.447-2.156-1.447-3.533 0-1.406.48-2.592 1.447-3.556.964-.964 2.149-1.447 3.555-1.447 1.377 0 2.556.483 3.536 1.447.976.964 1.465 2.15 1.465 3.556m4.507-.041c0-1.27-.254-2.434-.762-3.497a9.956 9.956 0 0 0-2.049-2.83 9.607 9.607 0 0 0-3.019-1.965 9.486 9.486 0 0 0-3.678-.722c-1.323 0-2.55.241-3.679.722a10.238 10.238 0 0 0-3.019 1.965 9.914 9.914 0 0 0-2.048 2.83c-.508 1.063-.763 2.227-.763 3.497 0 1.24.255 2.397.763 3.472a9.761 9.761 0 0 0 2.048 2.853 10.193 10.193 0 0 0 3.019 1.963c1.129.483 2.356.724 3.679.724a9.45 9.45 0 0 0 3.678-.724 9.567 9.567 0 0 0 3.019-1.963A9.801 9.801 0 0 0 .85-25.594a8.022 8.022 0 0 0 .762-3.472M-11.906-9.304h-10.502v-5.209h10.502zm4.507-9.012h-19.516V-.579h4.507v-4.879h10.502v4.879h4.507z" style="fill:#575756;fill-opacity:1;fill-rule:nonzero;stroke:none" transform="matrix(3.00287 0 0 -3.00287 165.942 500.53)"/><path d="M180.063 58.17h-19.392v-8.435h19.392zm-23.898 4.011h28.446V45.725h-28.446zm-2.728-26.296v4.052h33.903v-4.052h-14.678v-9.51h-4.589v9.51z" style="fill:#575756;fill-opacity:1;fill-rule:nonzero;stroke:none" transform="matrix(3.00287 0 0 -3.00287 -253.797 690.48)"/><path d="M0 0v7.028h-6.449v3.929H0v8.683h4.59V0Zm-3.06-9.345c0 1.378-.502 2.564-1.506 3.556C-5.575-4.796-6.78-4.3-8.187-4.3c-1.376 0-2.563-.496-3.555-1.489-.992-.992-1.488-2.178-1.488-3.556 0-1.405.496-2.597 1.488-3.578.992-.975 2.179-1.466 3.555-1.466 1.407 0 2.612.491 3.621 1.466 1.004.981 1.506 2.173 1.506 3.578m4.507-.041c0-1.24-.254-2.404-.762-3.495a9.73 9.73 0 0 0-2.049-2.872 9.586 9.586 0 0 0-3.037-1.966 9.79 9.79 0 0 0-3.744-.721 9.83 9.83 0 0 0-3.721.721c-1.185.484-2.204 1.139-3.06 1.966a9.68 9.68 0 0 0-2.045 2.872 8.135 8.135 0 0 0-.766 3.495c0 1.24.255 2.405.766 3.492a9.656 9.656 0 0 0 2.045 2.875c.856.828 1.875 1.483 3.06 1.963a9.757 9.757 0 0 0 3.721.725c1.324 0 2.57-.241 3.744-.725a9.494 9.494 0 0 0 3.037-1.963A9.704 9.704 0 0 0 .685-5.894a8.15 8.15 0 0 0 .762-3.492m-29.438 22.12v3.846h8.641v3.514h4.879V16.58h8.228v-3.846h-8.972l9.303-9.426L-8.889.496l-8.021 8.352-7.939-9.013-3.059 2.853 9.345 10.046z" style="fill:#575756;fill-opacity:1;fill-rule:nonzero;stroke:none" transform="matrix(3.00287 0 0 -3.00287 414.96 559.506)"/></svg>